<?xml version="1.0" encoding="utf-8"?>
<!-- Generator: Adobe Illustrator 23.1.0, SVG Export Plug-In . SVG Version: 6.00 Build 0)  -->
<svg version="1.1" id="Слой_1" xmlns="http://www.w3.org/2000/svg" xmlns:xlink="http://www.w3.org/1999/xlink" x="0px" y="0px"
	 viewBox="0 0 138.7 470" enable-background="new 0 0 138.7 470" xml:space="preserve">
<path fill="#666666" d="M118.4,20.3c-1-1-25.1-23.6-41.8-19.9l-0.7,0.1l19.6,44.2L88,56.8L11.1,91.6l0.4,0.5c1.6,2.1,3,4.2,4.5,6.2
	l-16,7.2l2,13.5l0.1,0.3c1.1,1.5,2.6,2.1,3.8,1.5l2.3-1l0.6,1.4c0.2,0.5,0.7,0.9,1.2,1.2c0.3,0.1,0.5,0.1,0.8,0.1
	c0.3,0,0.6-0.1,0.9-0.2c1.1-0.5,1.6-1.8,1.1-2.9l-0.6-1.4l2.7-1.2l0.6,1.4c0.5,1.1,1.8,1.6,2.9,1.1c1.1-0.5,1.6-1.8,1.1-2.9
	l-0.6-1.4l2.7-1.2l0.6,1.4c0.2,0.5,0.7,0.9,1.2,1.2c0.5,0.2,1.1,0.2,1.7,0c0.5-0.2,0.9-0.7,1.2-1.2c0.2-0.5,0.2-1.1,0-1.7l-0.4-0.9
	c24.2,37.2,27.4,55.8,27.8,59.6c0,0.4,0.1,0.8,0,1.2c0,2.3-4.8,227.4-5.6,254.1c-0.4,12.7,0.3,26.8,8.4,35.1
	C61.1,467.6,68,470,77,470c0.2,0,0.5,0,0.7,0c7-0.1,12.6-2.5,16.9-7.2c10.2-11.3,8.6-31.6,8.5-32.4l-7-203.4
	c0-0.4-2.1-42.3-0.7-57.4c0.2-2.5,0.4-4.4,0.5-5.9c0.5-6.6,0.5-6.6,3.5-17.8c0.6-2.4,1.4-5.3,2.3-8.8c3.2-12.4,11.4-24.9,19.4-37.1
	c7.6-11.7,14.8-22.7,17-32.6C142.5,47.1,119.4,21.4,118.4,20.3z M24.8,111.2l-0.8,0.3l1.1,2.4c0.1,0.3,0.1,0.6,0,0.8
	c-0.1,0.3-0.3,0.5-0.6,0.6c-0.3,0.1-0.6,0.1-0.8,0c-0.3-0.1-0.5-0.3-0.6-0.6l-1.1-2.4l-4.6,2.1l1.1,2.4c0.2,0.6,0,1.2-0.6,1.5
	c-0.6,0.2-1.2,0-1.5-0.6l-1.1-2.4l-4.6,2.1l1.1,2.4c0.2,0.6,0,1.2-0.6,1.5c-0.3,0.1-0.6,0.1-0.8,0c-0.3-0.1-0.5-0.3-0.6-0.6
	l-1.1-2.4l-3.2,1.5c-0.7,0.3-1.6-0.2-2.4-1.1l-1.8-12.6l15.4-6.9c0,0,0,0,0,0.1c2.1,3,4.1,5.9,6,8.7c0.1,0.1,0.1,0.2,0.2,0.3
	C23.5,109.4,24.1,110.3,24.8,111.2z M137,67c-2.1,9.7-9.3,20.7-16.8,32.3c-8,12.2-16.2,24.9-19.5,37.4c-0.9,3.6-1.7,6.4-2.3,8.8
	c-3,11.4-3,11.4-3.5,18c-0.1,1.5-0.3,3.4-0.5,5.9C92.9,184.6,95,226.6,95,227l7,203.4c0,0.2,1.6,20.7-8.3,31.6
	c-4,4.4-9.4,6.7-16.1,6.8c-9.2,0.2-15.9-2.1-20.6-6.9c-7.9-8-8.5-21.9-8.1-34.3c0.9-26.7,5.6-251.9,5.6-254.1c0-0.5,0-0.9-0.1-1.4
	c-0.4-3.8-3.6-22.8-28.2-60.5l0,0l-0.4-0.5c0,0,0-0.1-0.1-0.1c-0.6-0.9-1.2-1.8-1.8-2.8c-0.1-0.2-0.3-0.4-0.4-0.6
	c-3.3-4.9-6.9-10.1-10.9-15.6l75.9-34.3l0.2-0.1l8-12.9L77.5,1.3c16.1-2.9,39.9,19.5,40.1,19.7C117.8,21.3,141.3,47.4,137,67z
	 M49.5,63.9l-18.4-43l-0.4,0c-0.3,0-7.3,0.8-13.5,20.5c-6.1,19.4-6.6,47.5-6.6,47.8l0,0.9l31.5-14.2L49.5,63.9z M11.7,88.3
	c0.1-4.9,1.1-29.3,6.5-46.6c5.1-16.3,10.7-19.1,12.1-19.6l17.9,41.7l-6.9,11.1L11.7,88.3z M84.6,166.6c0-0.1-0.3-8.5-8.8-9.8
	c0,0-0.2,0-0.6,0c-0.4,0-0.6,0-0.7,0c-8.4,1.3-8.8,9.7-8.8,9.8c-0.1,2.4-6.3,242.1-6.4,245.2c-0.1,1.9,0.2,4.4,1.8,6
	c1,1,2.4,1.5,4.1,1.4c2.3-0.1,4.1-0.5,5.8-0.9c1.5-0.4,2.8-0.7,4.2-0.7c1.4,0,2.7,0.3,4.2,0.7c1.6,0.4,3.5,0.8,5.8,0.9
	c0.1,0,0.2,0,0.3,0c1.6,0,2.8-0.5,3.8-1.4c1.6-1.6,1.9-4.2,1.8-6C90.8,408.8,84.6,169.1,84.6,166.6z M88.4,417.1
	c-0.8,0.8-1.9,1.2-3.3,1.1c-2.2-0.1-3.9-0.5-5.5-0.9c-1.5-0.4-2.9-0.7-4.5-0.7c-1.5,0-3,0.4-4.5,0.7c-1.7,0.4-3.4,0.8-5.5,0.9
	c-1.4,0.1-2.5-0.3-3.3-1.1c-1.3-1.3-1.5-3.6-1.5-5.2c0.1-3,6.3-242.7,6.4-245.2c0-0.1,0.3-7.6,7.8-8.8c0,0,0.2,0,0.4,0
	c0.1,0,0.2,0,0.2,0c0.2,0,0.4,0,0.4,0c7.5,1.2,7.9,8.5,7.9,8.8c0.1,2.4,6.3,242.1,6.4,245.2C89.9,413.5,89.7,415.7,88.4,417.1z
	 M76.2,432.6c-6.1,0-11,4.9-11,11c0,6.1,4.9,11,11,11c6.1,0,11-4.9,11-11C87.2,437.6,82.3,432.6,76.2,432.6z M76.2,453.5
	c-5.5,0-9.9-4.4-9.9-9.9s4.4-9.9,9.9-9.9s9.9,4.4,9.9,9.9S81.7,453.5,76.2,453.5z M83.8,101.4L83.8,101.4l-3.3-8.4l0,0l0,0L80,91.6
	l-0.3-0.7l0,0l-2-5.1L51,97.1l-5.6,2.4l1.1,3l0,0l0.4,1l0,0l3.5,9.4l3.2,8.7l0,0h0l5.4,14.7l32.6-14.9l-5.5-14L83.8,101.4z
	 M84.6,110.1c0,0.3-0.1,0.5-0.2,0.7c-0.2,0.2-0.4,0.3-0.7,0.4c-0.3,0-0.5-0.1-0.7-0.2c-0.2-0.2-0.3-0.4-0.4-0.7L82,103l-0.4-4.5
	l0.2,0.4l2.5,6.3l0.3,3.5l0,0L84.6,110.1z M77.9,112.9c0,0.3-0.1,0.5-0.2,0.7c-0.2,0.2-0.4,0.3-0.7,0.4c-0.3,0-0.5-0.1-0.7-0.2
	c-0.2-0.2-0.3-0.4-0.4-0.7l-1.8-18.9c-0.1-0.5,0.4-1,0.9-1.1c0,0,0.1,0,0.1,0c0.5,0,0.9,0.4,1,0.9l1.6,16.3l0.1,1.3h0L77.9,112.9z
	 M71.1,115.7c0.1,0.5-0.4,1-0.9,1.1c-0.5,0-1-0.4-1.1-0.9L67.3,97c-0.1-0.5,0.4-1,0.9-1.1c0,0,0.1,0,0.1,0c0.2,0,0.5,0.1,0.6,0.2
	c0.2,0.2,0.3,0.4,0.4,0.7l1.3,13.4l0.4,4.2h0L71.1,115.7z M64.4,118.5c0,0.3-0.1,0.5-0.2,0.7c-0.2,0.2-0.4,0.3-0.7,0.4
	c-0.6,0-1-0.4-1.1-0.9l-0.9-9.7l-0.8-7.9l0,0l-0.1-1.3c0-0.3,0.1-0.5,0.2-0.7c0.2-0.2,0.4-0.3,0.7-0.4c0,0,0.1,0,0.1,0
	c0.5,0,0.9,0.4,1,0.9l1.6,16.8l0.1,0.8h0L64.4,118.5z M61.1,117.3l-2.7,1.1L57,103.8l2.7-1.1l1.1,11.6L61.1,117.3z M46.9,100.1
	l5.5-2.3l6.3-2.7c-0.1,0.5-0.4,1-0.8,1.2l-0.5,0.2l1.1,2.4l0,0c0.3,0.5,0,1.2-0.6,1.5c-0.5,0.2-1.2,0-1.5-0.6l-1.1-2.4l-4.6,2.1
	l1.1,2.4c0.2,0.6,0,1.2-0.6,1.5c-0.3,0.1-0.6,0.1-0.8,0c-0.3-0.1-0.5-0.3-0.6-0.6l-1.1-2.4l-1.4,0.6L46.9,100.1z M54.4,120.2
	L54.4,120.2l-3.8-10l-0.2-2.5l-0.1-0.9l2.7-1.1l1.2,12.2L54.4,120.2z M50.1,105.5l0-0.4h0c0-0.3-0.2-0.7-0.3-0.9
	c0.1,0,0.1,0.1,0.2,0.1c0.3,0.1,0.5,0.1,0.8,0.1c0.3,0,0.6-0.1,0.9-0.2c0.5-0.2,0.9-0.6,1.1-1.1l0.1,1.3L50.1,105.5z M52.9,101.7
	c0-0.1-0.1-0.2-0.1-0.4l-0.6-1.4l2.7-1.2l0.6,1.4c0.1,0.2,0.2,0.3,0.3,0.5c-0.3-0.2-0.7-0.2-1.1-0.2c-0.6,0.1-1.1,0.3-1.4,0.7
	C53,101.4,52.9,101.5,52.9,101.7z M49.1,106.1l-0.6-1.6c0.3,0.2,0.5,0.4,0.5,0.8L49.1,106.1z M53.8,102.6c0-0.3,0.1-0.5,0.2-0.7
	c0.2-0.2,0.4-0.3,0.7-0.4c0,0,0.1,0,0.1,0c0.5,0,0.9,0.4,1,0.9l1.8,18.9c0,0.3-0.1,0.5-0.2,0.7c-0.2,0.2-0.4,0.3-0.7,0.4
	c-0.5,0-1-0.4-1.1-0.9L53.8,102.6z M56.9,102.7l0-0.4h0c0-0.4-0.2-0.8-0.4-1.1c0.6,0.3,1.2,0.3,1.9,0c0.6-0.3,1-0.8,1.2-1.3l0.2,1.6
	L56.9,102.7z M63.8,101l2.7-1.1l1.4,14.6l-2.7,1.1L63.8,101z M70.5,98.2l2.7-1.1l1.4,14.6l-2.7,1.1L70.5,98.2z M77.3,95.4l2.6-1.1
	l0.2,0.5l0.1,0.6l1.3,13.4l-2.7,1.1L77.3,95.4z M79.5,93.3l-2.3,1l0-0.4h0c-0.1-1.1-1.1-2-2.3-1.9c-1.1,0.1-2,1.1-1.9,2.3l0.2,1.7
	l-2.7,1.1l0-0.4h0c-0.1-0.6-0.3-1.1-0.8-1.4c-0.4-0.4-1-0.5-1.5-0.5c-1.1,0.1-2,1.1-1.9,2.3l0.2,1.7l-2.7,1.1l0-0.4h0
	c-0.1-1.1-1.1-2-2.3-1.9c-0.6,0.1-1.1,0.3-1.4,0.7c-0.2,0.2-0.3,0.4-0.4,0.7c0-0.2-0.1-0.5-0.2-0.7l-0.6-1.4c0.6-0.5,1-1.3,1-2.4
	l17.3-7.3L79.5,93.3z M48.1,101.8l0.6,1.4c0,0.1,0.1,0.2,0.2,0.3c-0.3-0.1-0.6-0.2-0.9-0.2l-0.5-1.3L48.1,101.8z M59.7,134.8
	l-4.3-11.7c0.3,0.2,0.8,0.4,1.2,0.4c0.1,0,0.1,0,0.2,0c0.6-0.1,1.1-0.3,1.4-0.7c0.4-0.4,0.5-1,0.5-1.5l-0.2-1.7l2.7-1.1l0,0.4
	c0.1,1.1,1,1.9,2.1,1.9c0.1,0,0.1,0,0.2,0c0.6-0.1,1.1-0.3,1.4-0.7c0.4-0.4,0.5-1,0.5-1.5l-0.2-1.7l2.7-1.1l0,0.4
	c0.1,1.1,1,1.9,2.1,1.9c0.1,0,0.1,0,0.2,0c1.1-0.1,2-1.1,1.9-2.3L72,114l2.7-1.1l0,0.4c0.1,0.6,0.3,1.1,0.8,1.4
	c0.4,0.3,0.8,0.5,1.3,0.5c0.1,0,0.1,0,0.2,0c0.6-0.1,1.1-0.3,1.4-0.7c0.4-0.4,0.5-1,0.5-1.5l-0.2-1.7l2.7-1.1l0,0.4
	c0.1,0.6,0.3,1.1,0.8,1.4c0.4,0.3,0.8,0.5,1.3,0.5c0.1,0,0.1,0,0.2,0c0.6-0.1,1.1-0.3,1.4-0.7c0.4-0.4,0.5-1,0.5-1.5l-0.1-1
	l4.7,11.9L59.7,134.8z"/>
</svg>
